<mxfile host="app.diagrams.net" agent="Mozilla/5.0 (Windows NT 10.0; Win64; x64) AppleWebKit/537.36 (KHTML, like Gecko) Chrome/131.0.0.0 Safari/537.36" version="26.0.3">
  <diagram name="Page-1" id="4kEPfgqW-0Mosg0hXnUj">
    <mxGraphModel dx="2764" dy="2076" grid="1" gridSize="10" guides="1" tooltips="1" connect="1" arrows="1" fold="1" page="1" pageScale="1" pageWidth="850" pageHeight="1100" math="0" shadow="0">
      <root>
        <mxCell id="0" />
        <mxCell id="1" parent="0" />
        <mxCell id="Ab2rAUgQnM5hvADi2GFk-1" value="" style="rounded=0;whiteSpace=wrap;html=1;" vertex="1" parent="1">
          <mxGeometry x="80" y="360" width="40" height="40" as="geometry" />
        </mxCell>
        <mxCell id="Ab2rAUgQnM5hvADi2GFk-2" value="" style="rounded=0;whiteSpace=wrap;html=1;" vertex="1" parent="1">
          <mxGeometry x="80" y="400" width="40" height="40" as="geometry" />
        </mxCell>
        <mxCell id="Ab2rAUgQnM5hvADi2GFk-3" value="" style="rounded=0;whiteSpace=wrap;html=1;" vertex="1" parent="1">
          <mxGeometry x="80" y="440" width="40" height="40" as="geometry" />
        </mxCell>
        <mxCell id="Ab2rAUgQnM5hvADi2GFk-4" value="" style="rounded=0;whiteSpace=wrap;html=1;" vertex="1" parent="1">
          <mxGeometry x="120" y="360" width="40" height="40" as="geometry" />
        </mxCell>
        <mxCell id="Ab2rAUgQnM5hvADi2GFk-5" value="" style="rounded=0;whiteSpace=wrap;html=1;" vertex="1" parent="1">
          <mxGeometry x="120" y="400" width="40" height="40" as="geometry" />
        </mxCell>
        <mxCell id="Ab2rAUgQnM5hvADi2GFk-6" value="" style="rounded=0;whiteSpace=wrap;html=1;" vertex="1" parent="1">
          <mxGeometry x="120" y="440" width="40" height="40" as="geometry" />
        </mxCell>
        <mxCell id="Ab2rAUgQnM5hvADi2GFk-7" value="" style="rounded=0;whiteSpace=wrap;html=1;" vertex="1" parent="1">
          <mxGeometry x="160" y="360" width="40" height="40" as="geometry" />
        </mxCell>
        <mxCell id="Ab2rAUgQnM5hvADi2GFk-8" value="" style="rounded=0;whiteSpace=wrap;html=1;" vertex="1" parent="1">
          <mxGeometry x="160" y="400" width="40" height="40" as="geometry" />
        </mxCell>
        <mxCell id="Ab2rAUgQnM5hvADi2GFk-9" value="" style="rounded=0;whiteSpace=wrap;html=1;" vertex="1" parent="1">
          <mxGeometry x="160" y="440" width="40" height="40" as="geometry" />
        </mxCell>
        <mxCell id="Ab2rAUgQnM5hvADi2GFk-10" value="=" style="rounded=0;whiteSpace=wrap;html=1;" vertex="1" parent="1">
          <mxGeometry x="265" y="45" width="120" height="60" as="geometry" />
        </mxCell>
        <mxCell id="Ab2rAUgQnM5hvADi2GFk-11" value="" style="endArrow=classic;html=1;rounded=0;entryX=0.166;entryY=-0.003;entryDx=0;entryDy=0;entryPerimeter=0;" edge="1" parent="1" target="Ab2rAUgQnM5hvADi2GFk-10">
          <mxGeometry width="50" height="50" relative="1" as="geometry">
            <mxPoint x="285" y="5" as="sourcePoint" />
            <mxPoint x="295" y="-35" as="targetPoint" />
          </mxGeometry>
        </mxCell>
        <mxCell id="Ab2rAUgQnM5hvADi2GFk-12" value="" style="endArrow=classic;html=1;rounded=0;entryX=0.166;entryY=-0.003;entryDx=0;entryDy=0;entryPerimeter=0;" edge="1" parent="1">
          <mxGeometry width="50" height="50" relative="1" as="geometry">
            <mxPoint x="355" y="5" as="sourcePoint" />
            <mxPoint x="355" y="45" as="targetPoint" />
          </mxGeometry>
        </mxCell>
        <mxCell id="Ab2rAUgQnM5hvADi2GFk-13" value="" style="endArrow=classic;html=1;rounded=0;exitX=0.5;exitY=1;exitDx=0;exitDy=0;entryX=1;entryY=0.5;entryDx=0;entryDy=0;" edge="1" parent="1" source="Ab2rAUgQnM5hvADi2GFk-10" target="Ab2rAUgQnM5hvADi2GFk-14">
          <mxGeometry width="50" height="50" relative="1" as="geometry">
            <mxPoint x="357.5" y="170" as="sourcePoint" />
            <mxPoint x="367.5" y="160" as="targetPoint" />
            <Array as="points">
              <mxPoint x="325" y="170" />
            </Array>
          </mxGeometry>
        </mxCell>
        <mxCell id="Ab2rAUgQnM5hvADi2GFk-14" value="" style="shape=trapezoid;perimeter=trapezoidPerimeter;whiteSpace=wrap;html=1;fixedSize=1;rotation=180;" vertex="1" parent="1">
          <mxGeometry x="447.5" y="140" width="110" height="60" as="geometry" />
        </mxCell>
        <mxCell id="Ab2rAUgQnM5hvADi2GFk-15" value="0" style="text;html=1;align=center;verticalAlign=middle;whiteSpace=wrap;rounded=0;" vertex="1" parent="1">
          <mxGeometry x="447.5" y="140" width="60" height="30" as="geometry" />
        </mxCell>
        <mxCell id="Ab2rAUgQnM5hvADi2GFk-16" value="1" style="text;html=1;align=center;verticalAlign=middle;whiteSpace=wrap;rounded=0;" vertex="1" parent="1">
          <mxGeometry x="497.5" y="140" width="60" height="30" as="geometry" />
        </mxCell>
        <mxCell id="Ab2rAUgQnM5hvADi2GFk-17" value="" style="endArrow=classic;html=1;rounded=0;entryX=0.5;entryY=0;entryDx=0;entryDy=0;" edge="1" parent="1" target="Ab2rAUgQnM5hvADi2GFk-16">
          <mxGeometry width="50" height="50" relative="1" as="geometry">
            <mxPoint x="527.5" y="90" as="sourcePoint" />
            <mxPoint x="597.5" y="55" as="targetPoint" />
          </mxGeometry>
        </mxCell>
        <mxCell id="Ab2rAUgQnM5hvADi2GFk-18" value="" style="endArrow=classic;html=1;rounded=0;entryX=0.5;entryY=0;entryDx=0;entryDy=0;exitX=0.5;exitY=1;exitDx=0;exitDy=0;" edge="1" parent="1" source="Ab2rAUgQnM5hvADi2GFk-20" target="Ab2rAUgQnM5hvADi2GFk-15">
          <mxGeometry width="50" height="50" relative="1" as="geometry">
            <mxPoint x="467.5" y="10" as="sourcePoint" />
            <mxPoint x="492.5" y="20" as="targetPoint" />
          </mxGeometry>
        </mxCell>
        <mxCell id="Ab2rAUgQnM5hvADi2GFk-19" value="0" style="text;html=1;align=center;verticalAlign=middle;whiteSpace=wrap;rounded=0;" vertex="1" parent="1">
          <mxGeometry x="497.5" y="60" width="60" height="30" as="geometry" />
        </mxCell>
        <mxCell id="Ab2rAUgQnM5hvADi2GFk-20" value="+1" style="rounded=0;whiteSpace=wrap;html=1;" vertex="1" parent="1">
          <mxGeometry x="447.5" y="-50" width="60" height="60" as="geometry" />
        </mxCell>
        <mxCell id="Ab2rAUgQnM5hvADi2GFk-21" value="" style="triangle;whiteSpace=wrap;html=1;" vertex="1" parent="1">
          <mxGeometry x="447.5" y="-30" width="20" height="20" as="geometry" />
        </mxCell>
        <mxCell id="Ab2rAUgQnM5hvADi2GFk-22" value="" style="endArrow=classic;html=1;rounded=0;entryX=1.034;entryY=0.583;entryDx=0;entryDy=0;entryPerimeter=0;" edge="1" parent="1" target="Ab2rAUgQnM5hvADi2GFk-20">
          <mxGeometry width="50" height="50" relative="1" as="geometry">
            <mxPoint x="537.5" y="-15" as="sourcePoint" />
            <mxPoint x="587.5" y="-20" as="targetPoint" />
          </mxGeometry>
        </mxCell>
        <mxCell id="Ab2rAUgQnM5hvADi2GFk-23" value="count_en" style="text;html=1;align=center;verticalAlign=middle;whiteSpace=wrap;rounded=0;" vertex="1" parent="1">
          <mxGeometry x="517.5" y="-40" width="62.5" height="30" as="geometry" />
        </mxCell>
        <mxCell id="Ab2rAUgQnM5hvADi2GFk-24" value="" style="endArrow=classic;html=1;rounded=0;entryX=0.166;entryY=-0.003;entryDx=0;entryDy=0;entryPerimeter=0;" edge="1" parent="1">
          <mxGeometry width="50" height="50" relative="1" as="geometry">
            <mxPoint x="477.5" y="-90" as="sourcePoint" />
            <mxPoint x="477.5" y="-50" as="targetPoint" />
          </mxGeometry>
        </mxCell>
        <mxCell id="Ab2rAUgQnM5hvADi2GFk-25" value="i_counter [9:0]" style="text;html=1;align=center;verticalAlign=middle;whiteSpace=wrap;rounded=0;" vertex="1" parent="1">
          <mxGeometry x="447.5" y="-120" width="60" height="30" as="geometry" />
        </mxCell>
        <mxCell id="Ab2rAUgQnM5hvADi2GFk-26" value="i_counter [9:0]" style="text;html=1;align=center;verticalAlign=middle;whiteSpace=wrap;rounded=0;" vertex="1" parent="1">
          <mxGeometry x="250" y="-25" width="60" height="30" as="geometry" />
        </mxCell>
        <mxCell id="Ab2rAUgQnM5hvADi2GFk-27" value="i_counter [9:0]" style="text;html=1;align=center;verticalAlign=middle;whiteSpace=wrap;rounded=0;" vertex="1" parent="1">
          <mxGeometry x="517.5" y="230" width="60" height="30" as="geometry" />
        </mxCell>
        <mxCell id="Ab2rAUgQnM5hvADi2GFk-28" value="COLS - 2" style="text;html=1;align=center;verticalAlign=middle;whiteSpace=wrap;rounded=0;" vertex="1" parent="1">
          <mxGeometry x="330" y="-25" width="60" height="30" as="geometry" />
        </mxCell>
        <mxCell id="Ab2rAUgQnM5hvADi2GFk-29" value="i_counter_eq_max" style="text;html=1;align=center;verticalAlign=middle;whiteSpace=wrap;rounded=0;fillColor=#f5f5f5;fontColor=#333333;strokeColor=#666666;" vertex="1" parent="1">
          <mxGeometry x="265" y="120" width="117.5" height="30" as="geometry" />
        </mxCell>
        <mxCell id="Ab2rAUgQnM5hvADi2GFk-30" value="" style="endArrow=classic;html=1;rounded=0;" edge="1" parent="1">
          <mxGeometry width="50" height="50" relative="1" as="geometry">
            <mxPoint x="500" y="200" as="sourcePoint" />
            <mxPoint x="500" y="270" as="targetPoint" />
          </mxGeometry>
        </mxCell>
        <mxCell id="Ab2rAUgQnM5hvADi2GFk-31" value="=" style="rounded=0;whiteSpace=wrap;html=1;" vertex="1" parent="1">
          <mxGeometry x="-185" y="35" width="120" height="60" as="geometry" />
        </mxCell>
        <mxCell id="Ab2rAUgQnM5hvADi2GFk-32" value="" style="endArrow=classic;html=1;rounded=0;entryX=0.166;entryY=-0.003;entryDx=0;entryDy=0;entryPerimeter=0;" edge="1" parent="1" target="Ab2rAUgQnM5hvADi2GFk-31">
          <mxGeometry width="50" height="50" relative="1" as="geometry">
            <mxPoint x="-165" y="-5" as="sourcePoint" />
            <mxPoint x="-155" y="-45" as="targetPoint" />
          </mxGeometry>
        </mxCell>
        <mxCell id="Ab2rAUgQnM5hvADi2GFk-33" value="" style="endArrow=classic;html=1;rounded=0;entryX=0.166;entryY=-0.003;entryDx=0;entryDy=0;entryPerimeter=0;" edge="1" parent="1">
          <mxGeometry width="50" height="50" relative="1" as="geometry">
            <mxPoint x="-95" y="-5" as="sourcePoint" />
            <mxPoint x="-95" y="35" as="targetPoint" />
          </mxGeometry>
        </mxCell>
        <mxCell id="Ab2rAUgQnM5hvADi2GFk-34" value="" style="endArrow=classic;html=1;rounded=0;exitX=0.5;exitY=1;exitDx=0;exitDy=0;entryX=1;entryY=0.5;entryDx=0;entryDy=0;" edge="1" parent="1" source="Ab2rAUgQnM5hvADi2GFk-31" target="Ab2rAUgQnM5hvADi2GFk-35">
          <mxGeometry width="50" height="50" relative="1" as="geometry">
            <mxPoint x="-92.5" y="160" as="sourcePoint" />
            <mxPoint x="-82.5" y="150" as="targetPoint" />
            <Array as="points">
              <mxPoint x="-125" y="160" />
            </Array>
          </mxGeometry>
        </mxCell>
        <mxCell id="Ab2rAUgQnM5hvADi2GFk-35" value="" style="shape=trapezoid;perimeter=trapezoidPerimeter;whiteSpace=wrap;html=1;fixedSize=1;rotation=180;" vertex="1" parent="1">
          <mxGeometry x="-2.5" y="130" width="110" height="60" as="geometry" />
        </mxCell>
        <mxCell id="Ab2rAUgQnM5hvADi2GFk-36" value="0" style="text;html=1;align=center;verticalAlign=middle;whiteSpace=wrap;rounded=0;" vertex="1" parent="1">
          <mxGeometry x="-2.5" y="130" width="60" height="30" as="geometry" />
        </mxCell>
        <mxCell id="Ab2rAUgQnM5hvADi2GFk-37" value="1" style="text;html=1;align=center;verticalAlign=middle;whiteSpace=wrap;rounded=0;" vertex="1" parent="1">
          <mxGeometry x="47.5" y="130" width="60" height="30" as="geometry" />
        </mxCell>
        <mxCell id="Ab2rAUgQnM5hvADi2GFk-38" value="" style="endArrow=classic;html=1;rounded=0;entryX=0.5;entryY=0;entryDx=0;entryDy=0;" edge="1" parent="1" target="Ab2rAUgQnM5hvADi2GFk-37">
          <mxGeometry width="50" height="50" relative="1" as="geometry">
            <mxPoint x="77.5" y="80" as="sourcePoint" />
            <mxPoint x="147.5" y="45" as="targetPoint" />
          </mxGeometry>
        </mxCell>
        <mxCell id="Ab2rAUgQnM5hvADi2GFk-39" value="" style="endArrow=classic;html=1;rounded=0;entryX=0.5;entryY=0;entryDx=0;entryDy=0;exitX=0.5;exitY=1;exitDx=0;exitDy=0;" edge="1" parent="1" source="Ab2rAUgQnM5hvADi2GFk-41" target="Ab2rAUgQnM5hvADi2GFk-36">
          <mxGeometry width="50" height="50" relative="1" as="geometry">
            <mxPoint x="17.5" as="sourcePoint" />
            <mxPoint x="42.5" y="10" as="targetPoint" />
          </mxGeometry>
        </mxCell>
        <mxCell id="Ab2rAUgQnM5hvADi2GFk-40" value="0" style="text;html=1;align=center;verticalAlign=middle;whiteSpace=wrap;rounded=0;" vertex="1" parent="1">
          <mxGeometry x="47.5" y="50" width="60" height="30" as="geometry" />
        </mxCell>
        <mxCell id="Ab2rAUgQnM5hvADi2GFk-41" value="+1" style="rounded=0;whiteSpace=wrap;html=1;" vertex="1" parent="1">
          <mxGeometry x="-2.5" y="-60" width="60" height="60" as="geometry" />
        </mxCell>
        <mxCell id="Ab2rAUgQnM5hvADi2GFk-42" value="" style="triangle;whiteSpace=wrap;html=1;" vertex="1" parent="1">
          <mxGeometry x="-2.5" y="-40" width="20" height="20" as="geometry" />
        </mxCell>
        <mxCell id="Ab2rAUgQnM5hvADi2GFk-43" value="" style="endArrow=classic;html=1;rounded=0;entryX=1.034;entryY=0.583;entryDx=0;entryDy=0;entryPerimeter=0;" edge="1" parent="1" target="Ab2rAUgQnM5hvADi2GFk-41">
          <mxGeometry width="50" height="50" relative="1" as="geometry">
            <mxPoint x="87.5" y="-25" as="sourcePoint" />
            <mxPoint x="137.5" y="-30" as="targetPoint" />
          </mxGeometry>
        </mxCell>
        <mxCell id="Ab2rAUgQnM5hvADi2GFk-44" value="count_en" style="text;html=1;align=center;verticalAlign=middle;whiteSpace=wrap;rounded=0;" vertex="1" parent="1">
          <mxGeometry x="67.5" y="-50" width="62.5" height="30" as="geometry" />
        </mxCell>
        <mxCell id="Ab2rAUgQnM5hvADi2GFk-45" value="" style="endArrow=classic;html=1;rounded=0;entryX=0.166;entryY=-0.003;entryDx=0;entryDy=0;entryPerimeter=0;" edge="1" parent="1">
          <mxGeometry width="50" height="50" relative="1" as="geometry">
            <mxPoint x="27.5" y="-100" as="sourcePoint" />
            <mxPoint x="27.5" y="-60" as="targetPoint" />
          </mxGeometry>
        </mxCell>
        <mxCell id="Ab2rAUgQnM5hvADi2GFk-46" value="i_row [9:0]" style="text;html=1;align=center;verticalAlign=middle;whiteSpace=wrap;rounded=0;" vertex="1" parent="1">
          <mxGeometry x="-2.5" y="-130" width="60" height="30" as="geometry" />
        </mxCell>
        <mxCell id="Ab2rAUgQnM5hvADi2GFk-49" value="ROWS - 2" style="text;html=1;align=center;verticalAlign=middle;whiteSpace=wrap;rounded=0;" vertex="1" parent="1">
          <mxGeometry x="-119" y="-35" width="60" height="30" as="geometry" />
        </mxCell>
        <mxCell id="Ab2rAUgQnM5hvADi2GFk-50" value="i_row_eq_max" style="text;html=1;align=center;verticalAlign=middle;whiteSpace=wrap;rounded=0;fillColor=#f5f5f5;fontColor=#333333;strokeColor=#666666;" vertex="1" parent="1">
          <mxGeometry x="-185" y="110" width="117.5" height="30" as="geometry" />
        </mxCell>
        <mxCell id="Ab2rAUgQnM5hvADi2GFk-51" value="" style="endArrow=classic;html=1;rounded=0;" edge="1" parent="1">
          <mxGeometry width="50" height="50" relative="1" as="geometry">
            <mxPoint x="50" y="190" as="sourcePoint" />
            <mxPoint x="50" y="260" as="targetPoint" />
          </mxGeometry>
        </mxCell>
        <mxCell id="Ab2rAUgQnM5hvADi2GFk-52" value="i_row [9:0]" style="text;html=1;align=center;verticalAlign=middle;whiteSpace=wrap;rounded=0;" vertex="1" parent="1">
          <mxGeometry x="-200" y="-35" width="60" height="30" as="geometry" />
        </mxCell>
        <mxCell id="Ab2rAUgQnM5hvADi2GFk-53" value="i_row [9:0]" style="text;html=1;align=center;verticalAlign=middle;whiteSpace=wrap;rounded=0;" vertex="1" parent="1">
          <mxGeometry x="67.5" y="250" width="60" height="30" as="geometry" />
        </mxCell>
        <mxCell id="Ab2rAUgQnM5hvADi2GFk-54" value="IDLE" style="ellipse;whiteSpace=wrap;html=1;aspect=fixed;" vertex="1" parent="1">
          <mxGeometry x="381.25" y="350" width="80" height="80" as="geometry" />
        </mxCell>
        <mxCell id="Ab2rAUgQnM5hvADi2GFk-55" value="" style="endArrow=classic;html=1;rounded=0;exitX=1.004;exitY=0.534;exitDx=0;exitDy=0;exitPerimeter=0;entryX=-0.006;entryY=0.467;entryDx=0;entryDy=0;entryPerimeter=0;" edge="1" parent="1" source="Ab2rAUgQnM5hvADi2GFk-54" target="Ab2rAUgQnM5hvADi2GFk-56">
          <mxGeometry width="50" height="50" relative="1" as="geometry">
            <mxPoint x="501.25" y="400" as="sourcePoint" />
            <mxPoint x="551.25" y="390" as="targetPoint" />
          </mxGeometry>
        </mxCell>
        <mxCell id="Ab2rAUgQnM5hvADi2GFk-56" value="START" style="ellipse;whiteSpace=wrap;html=1;aspect=fixed;" vertex="1" parent="1">
          <mxGeometry x="551.25" y="355" width="80" height="80" as="geometry" />
        </mxCell>
        <mxCell id="Ab2rAUgQnM5hvADi2GFk-57" value="done_i" style="text;html=1;align=center;verticalAlign=middle;whiteSpace=wrap;rounded=0;" vertex="1" parent="1">
          <mxGeometry x="455" y="355" width="97.5" height="30" as="geometry" />
        </mxCell>
        <mxCell id="Ab2rAUgQnM5hvADi2GFk-61" value="FINISH_ALL" style="ellipse;whiteSpace=wrap;html=1;aspect=fixed;" vertex="1" parent="1">
          <mxGeometry x="238.75" y="510" width="80" height="80" as="geometry" />
        </mxCell>
        <mxCell id="Ab2rAUgQnM5hvADi2GFk-62" value="&lt;span style=&quot;color: rgb(0, 0, 0); font-family: Helvetica; font-size: 12px; font-style: normal; font-variant-ligatures: normal; font-variant-caps: normal; font-weight: 400; letter-spacing: normal; orphans: 2; text-align: center; text-indent: 0px; text-transform: none; widows: 2; word-spacing: 0px; -webkit-text-stroke-width: 0px; white-space: normal; background-color: rgb(251, 251, 251); text-decoration-thickness: initial; text-decoration-style: initial; text-decoration-color: initial; float: none; display: inline !important;&quot;&gt;i_col_eq_max&lt;/span&gt;" style="text;whiteSpace=wrap;html=1;" vertex="1" parent="1">
          <mxGeometry x="556.25" y="460" width="75" height="30" as="geometry" />
        </mxCell>
        <mxCell id="Ab2rAUgQnM5hvADi2GFk-66" value="i_row_eq_max" style="text;html=1;align=center;verticalAlign=middle;whiteSpace=wrap;rounded=0;" vertex="1" parent="1">
          <mxGeometry x="310" y="590" width="97.5" height="30" as="geometry" />
        </mxCell>
        <mxCell id="Ab2rAUgQnM5hvADi2GFk-68" value="START_COL" style="ellipse;whiteSpace=wrap;html=1;aspect=fixed;" vertex="1" parent="1">
          <mxGeometry x="661.25" y="350" width="80" height="80" as="geometry" />
        </mxCell>
        <mxCell id="Ab2rAUgQnM5hvADi2GFk-69" value="" style="endArrow=classic;html=1;rounded=0;exitX=0.994;exitY=0.435;exitDx=0;exitDy=0;exitPerimeter=0;entryX=0;entryY=0.5;entryDx=0;entryDy=0;" edge="1" parent="1" source="Ab2rAUgQnM5hvADi2GFk-56" target="Ab2rAUgQnM5hvADi2GFk-68">
          <mxGeometry width="50" height="50" relative="1" as="geometry">
            <mxPoint x="711.25" y="500" as="sourcePoint" />
            <mxPoint x="761.25" y="450" as="targetPoint" />
          </mxGeometry>
        </mxCell>
        <mxCell id="Ab2rAUgQnM5hvADi2GFk-72" value="DONE" style="ellipse;whiteSpace=wrap;html=1;aspect=fixed;" vertex="1" parent="1">
          <mxGeometry x="185" y="610" width="80" height="80" as="geometry" />
        </mxCell>
        <mxCell id="Ab2rAUgQnM5hvADi2GFk-73" value="" style="endArrow=classic;html=1;rounded=0;exitX=0.5;exitY=1;exitDx=0;exitDy=0;entryX=0.781;entryY=0.127;entryDx=0;entryDy=0;entryPerimeter=0;" edge="1" parent="1" source="Ab2rAUgQnM5hvADi2GFk-61" target="Ab2rAUgQnM5hvADi2GFk-72">
          <mxGeometry width="50" height="50" relative="1" as="geometry">
            <mxPoint x="318.75" y="730" as="sourcePoint" />
            <mxPoint x="368.75" y="680" as="targetPoint" />
          </mxGeometry>
        </mxCell>
        <mxCell id="Ab2rAUgQnM5hvADi2GFk-74" value="COL_OUT" style="ellipse;whiteSpace=wrap;html=1;aspect=fixed;" vertex="1" parent="1">
          <mxGeometry x="710" y="450" width="80" height="80" as="geometry" />
        </mxCell>
        <mxCell id="Ab2rAUgQnM5hvADi2GFk-78" value="i_col_ge_threshold" style="text;html=1;align=center;verticalAlign=middle;whiteSpace=wrap;rounded=0;" vertex="1" parent="1">
          <mxGeometry x="741.25" y="410" width="60" height="30" as="geometry" />
        </mxCell>
        <mxCell id="Ab2rAUgQnM5hvADi2GFk-79" value="COL_OUT" style="ellipse;whiteSpace=wrap;html=1;aspect=fixed;" vertex="1" parent="1">
          <mxGeometry x="620" y="550" width="80" height="80" as="geometry" />
        </mxCell>
        <mxCell id="Ab2rAUgQnM5hvADi2GFk-80" value="COL_OUT" style="ellipse;whiteSpace=wrap;html=1;aspect=fixed;" vertex="1" parent="1">
          <mxGeometry x="476.25" y="550" width="80" height="80" as="geometry" />
        </mxCell>
      </root>
    </mxGraphModel>
  </diagram>
</mxfile>
